<svg width="22" height="25" viewBox="0 0 22 25" fill="none" xmlns="http://www.w3.org/2000/svg">
<path d="M11 25C11.8335 25 12.6329 24.6708 13.2223 24.0848C13.8117 23.4987 14.1429 22.7039 14.1429 21.8752H7.85714C7.85714 22.7039 8.18826 23.4987 8.77766 24.0848C9.36706 24.6708 10.1665 25 11 25ZM11 2.99808L9.74757 3.24963C8.32667 3.53688 7.04934 4.30372 6.13203 5.42022C5.21472 6.53671 4.71385 7.93419 4.71429 9.37585C4.71429 10.3571 4.50371 12.8085 3.993 15.2224C3.74157 16.4208 3.40214 17.6691 2.95114 18.7503H19.0489C18.5979 17.6691 18.26 16.4223 18.007 15.2224C17.4963 12.8085 17.2857 10.3571 17.2857 9.37585C17.2858 7.93446 16.7848 6.53735 15.8675 5.42117C14.9502 4.305 13.6731 3.53839 12.2524 3.25119L11 2.99808ZM20.7743 18.7503C21.1247 19.4487 21.5301 20.0018 22 20.3128H0C0.469857 20.0018 0.875286 19.4487 1.22571 18.7503C2.64 15.938 3.14286 10.7508 3.14286 9.37585C3.14286 5.59481 5.84571 2.43873 9.43643 1.71846C9.4145 1.50121 9.4386 1.28181 9.5072 1.07439C9.57579 0.866976 9.68734 0.676158 9.83466 0.514242C9.98199 0.352327 10.1618 0.222909 10.3625 0.134336C10.5632 0.0457623 10.7804 0 11 0C11.2196 0 11.4368 0.0457623 11.6375 0.134336C11.8382 0.222909 12.018 0.352327 12.1653 0.514242C12.3127 0.676158 12.4242 0.866976 12.4928 1.07439C12.5614 1.28181 12.5855 1.50121 12.5636 1.71846C14.34 2.07712 15.9371 3.03544 17.0841 4.43102C18.2311 5.8266 18.8575 7.57357 18.8571 9.37585C18.8571 10.7508 19.36 15.938 20.7743 18.7503Z" fill="black"/>
</svg>
