<svg width="28" height="28" viewBox="0 0 28 28" fill="none" xmlns="http://www.w3.org/2000/svg">
<g clip-path="url(#clip0_104_199)">
<path d="M15.6306 1.27181C15.2053 -0.425687 12.7956 -0.425687 12.3686 1.27181L12.2443 1.77231C12.1716 2.06318 12.0224 2.32928 11.8122 2.54303C11.602 2.75677 11.3383 2.91035 11.0487 2.98785C10.7591 3.06534 10.454 3.06392 10.1651 2.98373C9.87625 2.90354 9.61408 2.7475 9.40584 2.53181L9.04709 2.16256C7.83084 0.904313 5.74309 2.11006 6.22434 3.79181L6.36434 4.28881C6.44661 4.57677 6.45041 4.88148 6.37534 5.17139C6.30028 5.46131 6.14908 5.72589 5.93741 5.93774C5.72574 6.14959 5.46129 6.30101 5.17143 6.37632C4.88158 6.45162 4.57687 6.44808 4.28884 6.36606L3.79184 6.22431C2.11184 5.74306 0.904343 7.83081 2.16259 9.04706L2.53184 9.40581C2.74753 9.61405 2.90357 9.87622 2.98376 10.1651C3.06395 10.454 3.06537 10.7591 2.98788 11.0487C2.91038 11.3383 2.7568 11.6019 2.54306 11.8122C2.32931 12.0224 2.06321 12.1716 1.77234 12.2443L1.27184 12.3686C-0.425657 12.7938 -0.425657 15.2036 1.27184 15.6306L1.77234 15.7548C2.06321 15.8275 2.32931 15.9767 2.54306 16.187C2.7568 16.3972 2.91038 16.6608 2.98788 16.9504C3.06537 17.2401 3.06395 17.5451 2.98376 17.834C2.90357 18.1229 2.74753 18.3851 2.53184 18.5933L2.16259 18.9521C0.904343 20.1683 2.11009 22.2561 3.79184 21.7748L4.28884 21.6348C4.57698 21.5524 4.88192 21.5485 5.17204 21.6237C5.46216 21.6988 5.7269 21.8502 5.93882 22.0621C6.15073 22.274 6.3021 22.5387 6.37723 22.8289C6.45236 23.119 6.44851 23.4239 6.36609 23.7121L6.22434 24.2073C5.74309 25.8873 7.83084 27.0948 9.04709 25.8366L9.40584 25.4673C9.61408 25.2516 9.87625 25.0956 10.1651 25.0154C10.454 24.9352 10.7591 24.9338 11.0487 25.0113C11.3383 25.0888 11.602 25.2424 11.8122 25.4561C12.0224 25.6698 12.1716 25.936 12.2443 26.2268L12.3686 26.7273C12.7938 28.4248 15.2036 28.4248 15.6306 26.7273L15.7548 26.2268C15.8275 25.936 15.9768 25.6698 16.187 25.4561C16.3972 25.2424 16.6608 25.0888 16.9505 25.0113C17.2401 24.9338 17.5452 24.9352 17.8341 25.0154C18.1229 25.0956 18.3851 25.2516 18.5933 25.4673L18.9521 25.8366C20.1683 27.0948 22.2561 25.8891 21.7748 24.2073L21.6348 23.7103C21.5524 23.4222 21.5486 23.1172 21.6237 22.8271C21.6988 22.537 21.8502 22.2723 22.0621 22.0603C22.274 21.8484 22.5388 21.6971 22.8289 21.6219C23.119 21.5468 23.424 21.5506 23.7121 21.6331L24.2073 21.7748C25.8873 22.2561 27.0948 20.1683 25.8366 18.9521L25.4673 18.5933C25.2517 18.3851 25.0956 18.1229 25.0154 17.834C24.9352 17.5451 24.9338 17.2401 25.0113 16.9504C25.0888 16.6608 25.2424 16.3972 25.4561 16.187C25.6699 15.9767 25.936 15.8275 26.2268 15.7548L26.7273 15.6306C28.4248 15.2053 28.4248 12.7956 26.7273 12.3686L26.2268 12.2443C25.936 12.1716 25.6699 12.0224 25.4561 11.8122C25.2424 11.6019 25.0888 11.3383 25.0113 11.0487C24.9338 10.7591 24.9352 10.454 25.0154 10.1651C25.0956 9.87622 25.2517 9.61405 25.4673 9.40581L25.8366 9.04706C27.0948 7.83081 25.8891 5.74306 24.2073 6.22431L23.7103 6.36431C23.4224 6.44658 23.1177 6.45037 22.8278 6.37531C22.5378 6.30025 22.2733 6.14905 22.0614 5.93738C21.8496 5.72571 21.6981 5.46126 21.6228 5.1714C21.5475 4.88155 21.5511 4.57684 21.6331 4.28881L21.7748 3.79181C22.2561 2.11181 20.1683 0.904313 18.9521 2.16256L18.5933 2.53181C18.3851 2.7475 18.1229 2.90354 17.8341 2.98373C17.5452 3.06392 17.2401 3.06534 16.9505 2.98785C16.6608 2.91035 16.3972 2.75677 16.187 2.54303C15.9768 2.32928 15.8275 2.06318 15.7548 1.77231L15.6306 1.27181ZM13.9996 22.7443C12.8407 22.7607 11.6901 22.5466 10.6147 22.1145C9.53921 21.6823 8.56039 21.0407 7.73506 20.227C6.90974 19.4132 6.25437 18.4436 5.80705 17.3744C5.35973 16.3052 5.12938 15.1577 5.12938 13.9987C5.12938 12.8397 5.35973 11.6922 5.80705 10.623C6.25437 9.55378 6.90974 8.58412 7.73506 7.77039C8.56039 6.95666 9.53921 6.31507 10.6147 5.88292C11.6901 5.45077 12.8407 5.23667 13.9996 5.25306C16.3193 5.25306 18.544 6.17457 20.1843 7.81485C21.8246 9.45514 22.7461 11.6798 22.7461 13.9996C22.7461 16.3193 21.8246 18.544 20.1843 20.1843C18.544 21.8246 16.3193 22.7461 13.9996 22.7461V22.7443Z" fill="black"/>
</g>
<defs>
<clipPath id="clip0_104_199">
<rect width="28" height="28" fill="white"/>
</clipPath>
</defs>
</svg>
